<svg width="35" height="35" viewBox="0 0 35 35" fill="none" xmlns="http://www.w3.org/2000/svg">
<defs>
<radialGradient id="paint0_radial_107_640" cx="0" cy="0" r="1" gradientUnits="userSpaceOnUse" gradientTransform="translate(5.89262 8.7509) scale(30.8424 30.8424)">
<stop stop-color="#FF4B3E"/>
<stop offset="0.4462" stop-color="#FD4A3D"/>
<stop offset="0.6069" stop-color="#F64939"/>
<stop offset="0.7215" stop-color="#EB4533"/>
<stop offset="0.8141" stop-color="#DA412A"/>
<stop offset="0.8935" stop-color="#C43A1F"/>
<stop offset="0.9625" stop-color="#A93311"/>
<stop offset="1" stop-color="#972E07"/>
</radialGradient>
<linearGradient id="paint1_linear_107_640" x1="24.1326" y1="12.3108" x2="22.4426" y2="6.43729" gradientUnits="userSpaceOnUse">
<stop stop-color="#FF1D25" stop-opacity="0"/>
<stop offset="1" stop-color="#FF1D25"/>
</linearGradient>
<linearGradient id="paint2_linear_107_640" x1="25.742" y1="14.1482" x2="19.9294" y2="3.96049" gradientUnits="userSpaceOnUse">
<stop stop-color="#972E07" stop-opacity="0"/>
<stop offset="1" stop-color="#582707"/>
</linearGradient>
<linearGradient id="paint3_linear_107_640" x1="21.1786" y1="5.07383" x2="27.9645" y2="10.2275" gradientUnits="userSpaceOnUse">
<stop stop-color="#ACC130"/>
<stop offset="1" stop-color="#97A03B"/>
</linearGradient>
<linearGradient id="paint4_linear_107_640" x1="25.1589" y1="7.49503" x2="19.2704" y2="4.22041" gradientUnits="userSpaceOnUse">
<stop stop-color="#97A03B" stop-opacity="0"/>
<stop offset="1" stop-color="#575C55"/>
</linearGradient>
<linearGradient id="paint5_linear_107_640" x1="20.1308" y1="5.56442" x2="21.7793" y2="6.92861" gradientUnits="userSpaceOnUse">
<stop stop-color="#97A03B"/>
<stop offset="1" stop-color="#6C7D47"/>
</linearGradient>
<linearGradient id="paint6_linear_107_640" x1="13.1486" y1="6.91462" x2="18.3022" y2="6.91462" gradientUnits="userSpaceOnUse">
<stop stop-color="#C08552"/>
<stop offset="1" stop-color="#895738"/>
</linearGradient>
<linearGradient id="paint7_linear_107_640" x1="17.5667" y1="30.0108" x2="17.5667" y2="41.715" gradientUnits="userSpaceOnUse">
<stop stop-color="#972E07" stop-opacity="0"/>
<stop offset="1" stop-color="#582707"/>
</linearGradient>
<linearGradient id="paint8_linear_107_640" x1="23.2514" y1="17.8403" x2="17.4039" y2="5.19917" gradientUnits="userSpaceOnUse">
<stop stop-color="#972E07" stop-opacity="0"/>
<stop offset="1" stop-color="#582707"/>
</linearGradient>
<linearGradient id="paint9_linear_107_640" x1="17.5209" y1="10.0377" x2="17.5209" y2="13.2797" gradientUnits="userSpaceOnUse">
<stop stop-color="#972E07" stop-opacity="0"/>
<stop offset="1" stop-color="#582707"/>
</linearGradient>
<linearGradient id="paint10_linear_107_640" x1="10.9423" y1="17.2441" x2="-4.88927" y2="6.57305" gradientUnits="userSpaceOnUse">
<stop offset="0.0013" stop-color="#E7EEED" stop-opacity="0"/>
<stop offset="0.7731" stop-color="#F9FBFA" stop-opacity="0.772549"/>
<stop offset="1" stop-color="white"/>
</linearGradient>
<clipPath id="clip0_107_640">
<rect width="35" height="35" fill="white"/>
</clipPath>
</defs>
<g clip-path="url(#clip0_107_640)">
<path d="M22.6008 8.01749C20.6782 8.43138 18.8757 10.1318 17.5668 10.1318C16.2578 10.1318 14.4551 8.43138 12.5327 8.01749C8.45467 7.48397 2.66602 10.3332 2.66602 19.0925C2.66602 27.8516 9.00875 35 11.7274 35C14.7477 35 15.1504 33.5903 17.5668 33.5903C19.9831 33.5903 20.3858 35 23.4061 35C26.1248 35 32.4675 27.8516 32.4675 19.0925C32.4675 10.3332 26.6789 7.48397 22.6008 8.01749Z" fill="url(#paint0_radial_107_640)"/>
<path d="M24.678 8.03489C23.9621 7.93395 23.259 7.93128 22.6008 8.01753C20.6784 8.43142 18.8757 10.1319 17.5668 10.1319C17.5336 10.1319 17.4997 10.13 17.4658 10.1279V12.2595L19.2493 12.592L31.5241 14.8807L24.678 8.03489Z" fill="url(#paint1_linear_107_640)"/>
<path d="M22.6008 8.01749C20.6782 8.43138 18.8757 10.1318 17.5667 10.1318C17.4997 10.1318 17.4311 10.1262 17.3614 10.1177C17.6503 10.8085 17.9483 11.2969 18.0546 11.4624C18.0522 11.4731 18.0493 11.4838 18.0466 11.4947L18.1443 11.554L31.5409 24.9444C32.115 23.1316 32.4675 21.1566 32.4675 19.0925C32.4675 10.3332 26.6788 7.48397 22.6008 8.01749Z" fill="url(#paint2_linear_107_640)"/>
<path d="M18.0955 11.5245C18.0955 11.5245 11.9466 2.55069 25.52 0.01819C26.0863 -0.0872864 26.6335 0.276407 26.7622 0.837968C27.3811 3.53816 28.1294 10.9034 18.0955 11.5245Z" fill="url(#paint3_linear_107_640)"/>
<path d="M26.7621 0.838013C26.6908 0.526657 26.4906 0.276451 26.23 0.133057C21.7329 5.03677 18.0955 11.5245 18.0955 11.5245C28.1293 10.9034 27.3811 3.53821 26.7621 0.838013Z" fill="url(#paint4_linear_107_640)"/>
<path d="M24.5215 4.16388C24.4166 4.20126 24.3087 4.23117 24.2024 4.26188C24.0964 4.29312 23.991 4.3241 23.8841 4.3492C23.7779 4.3767 23.6671 4.38872 23.5581 4.40287C23.4492 4.41622 23.3469 4.4464 23.2481 4.49233C23.1504 4.53959 23.0545 4.59113 22.9584 4.65548C23.0382 4.52757 23.118 4.39993 23.1976 4.27176L23.595 3.65118C23.7266 3.44317 23.8695 3.2453 24.0043 3.03942C24.2807 2.63327 24.5704 2.24047 24.8882 1.86583L24.8107 1.78198L24.5269 2.02658L24.384 2.14995C24.3376 2.19214 24.2946 2.23673 24.2497 2.27999C24.0753 2.4573 23.8906 2.62953 23.7258 2.81512C23.3835 3.17854 23.0614 3.55746 22.7365 3.9353C22.6758 4.00954 22.6152 4.08404 22.5546 4.15827C22.5549 4.07843 22.549 3.99912 22.5306 3.91982C22.506 3.813 22.479 3.70459 22.4681 3.59564C22.4547 3.48643 22.4473 3.37695 22.4398 3.26666C22.4318 3.15638 22.4224 3.04476 22.4214 2.93341C22.4083 2.70884 22.4166 2.48427 22.4182 2.25249L22.3567 2.23727C22.2569 2.44742 22.1722 2.66692 22.1068 2.89309C22.0726 3.00604 22.0465 3.1206 22.019 3.23622C21.9976 3.35211 21.976 3.4688 21.9607 3.5863C21.9445 3.70379 21.921 3.82235 21.9031 3.94198C21.8876 4.06161 21.8924 4.1815 21.9223 4.29846C21.9284 4.32143 21.9351 4.34439 21.942 4.36736C22.0182 4.61596 21.9631 4.88646 21.8032 5.09127L21.8003 5.09528C21.5215 5.45203 21.2515 5.81385 20.9791 6.17487C20.9767 6.06272 20.965 5.95698 20.9484 5.8523C20.9297 5.74496 20.8961 5.64375 20.8451 5.54656C20.7946 5.44936 20.7412 5.35136 20.7036 5.24828C20.6632 5.14601 20.6288 5.04187 20.5938 4.93693C20.5586 4.83199 20.5217 4.72651 20.4926 4.6189C20.4237 4.40501 20.3754 4.18524 20.3193 3.96067L20.2558 3.9612C20.2117 4.18951 20.1847 4.42316 20.1778 4.65868C20.1732 4.77644 20.1767 4.89394 20.1789 5.01276C20.1871 5.13026 20.1954 5.24882 20.2101 5.36631C20.2237 5.48434 20.2307 5.60477 20.2432 5.7252C20.2582 5.84456 20.2929 5.95965 20.3511 6.06566C20.3775 6.11186 20.4058 6.15778 20.4365 6.20264C20.5871 6.42027 20.5701 6.71294 20.4082 6.92229C20.2691 7.102 20.1292 7.28144 19.9914 7.46195C19.8165 7.69053 19.6536 7.92712 19.5003 8.16958C19.4963 8.07292 19.4856 7.98079 19.4712 7.88947C19.4528 7.78185 19.4192 7.68092 19.3682 7.58345C19.3174 7.48625 19.2643 7.38825 19.2264 7.28518C19.186 7.18317 19.1516 7.07877 19.1166 6.97382C19.0814 6.86915 19.0445 6.76341 19.0154 6.65606C18.9465 6.4419 18.8982 6.22214 18.8421 5.99757L18.7786 5.9981C18.7345 6.22641 18.7075 6.46033 18.7009 6.69558C18.696 6.81334 18.6995 6.9311 18.7019 7.04966C18.7099 7.16715 18.7182 7.28571 18.7329 7.40347C18.7465 7.52123 18.7535 7.64166 18.766 7.76209C18.7812 7.88172 18.8157 7.99681 18.8742 8.10255C18.9332 8.20696 19.0021 8.30843 19.0891 8.39949C19.1887 8.5039 19.2143 8.65771 19.1481 8.78588C18.9767 9.1178 18.6715 9.72022 18.5313 10.0519C18.3396 10.5149 18.1639 10.9878 18.0466 11.4949L18.1444 11.5539C18.5404 11.2185 18.8862 10.8535 19.2157 10.4791C19.5439 10.1039 19.8525 9.71755 20.1447 9.32074C20.15 9.3138 20.1551 9.30686 20.1602 9.29965C20.2547 9.17174 20.4219 9.13142 20.569 9.1915C20.6774 9.23583 20.7887 9.2628 20.8996 9.28095C21.0189 9.29884 21.1388 9.29163 21.2563 9.2644C21.3735 9.23449 21.4889 9.19924 21.6043 9.1712C21.7196 9.14423 21.8336 9.11112 21.9469 9.07801C22.059 9.03929 22.1706 9.00164 22.2793 8.95651C22.4977 8.86866 22.7079 8.76238 22.9068 8.64195L22.8855 8.58241C22.6553 8.60751 22.4326 8.63795 22.2077 8.64756C22.0969 8.65744 21.985 8.65931 21.8745 8.66278C21.7639 8.66625 21.6542 8.66999 21.5444 8.66759C21.4347 8.66759 21.3241 8.65157 21.2155 8.63768C21.1065 8.62353 21 8.627 20.8929 8.64676C20.777 8.66999 20.6614 8.6999 20.542 8.74396C20.6814 8.52686 20.8136 8.30496 20.9386 8.07852C21.0368 7.89668 21.1722 7.65315 21.2918 7.43952C21.4189 7.21228 21.6772 7.08518 21.9322 7.13805C22.0569 7.16395 22.1842 7.17116 22.2993 7.18985C22.419 7.20801 22.5389 7.2008 22.6561 7.17329C22.7736 7.14339 22.8889 7.10841 23.0043 7.08037C23.1196 7.0534 23.2337 7.02002 23.3466 6.98718C23.4588 6.94819 23.5704 6.91081 23.6793 6.86541C23.8978 6.77756 24.1077 6.67155 24.3069 6.55112L24.2852 6.4913C24.055 6.5164 23.8323 6.54711 23.6078 6.55673C23.4967 6.56661 23.3848 6.56847 23.2743 6.57168C23.164 6.57515 23.054 6.57889 22.9442 6.57649C22.8345 6.57675 22.7242 6.56046 22.6152 6.54684C22.5065 6.53269 22.4 6.53616 22.2927 6.55566C22.0884 6.59651 21.8854 6.65686 21.6598 6.78637C21.9135 6.36633 22.1642 5.94309 22.4243 5.52733L22.4339 5.51104C22.5864 5.25443 22.8665 5.09207 23.1642 5.1097C23.2484 5.11477 23.3317 5.11183 23.4134 5.10436C23.5335 5.0918 23.6478 5.05495 23.7546 4.99915C23.8606 4.94067 23.9637 4.87791 24.0681 4.82184C24.1733 4.76683 24.2753 4.70622 24.3765 4.64587C24.4753 4.58018 24.5742 4.51609 24.6681 4.44506C24.8577 4.30514 25.0345 4.14973 25.1969 3.98364L25.1613 3.93103C24.9445 4.01301 24.7365 4.09846 24.5215 4.16388Z" fill="url(#paint5_linear_107_640)"/>
<path d="M18.3021 12.3507C18.0394 12.3728 17.7686 12.3848 17.4931 12.3848C17.2984 12.3848 17.1077 12.3792 16.9197 12.3672C16.8965 11.0318 16.7502 9.39304 16.3096 7.75429C16.0476 6.7783 15.681 5.80124 15.1731 4.88773C14.3141 3.34404 13.4449 2.70424 13.4358 2.69783C13.1279 2.47486 13.0561 2.04441 13.2761 1.73466C13.4975 1.42597 13.9242 1.3512 14.2348 1.56963C14.3611 1.65829 16.6311 3.30986 17.7243 7.68326C18.0514 8.98743 18.2728 10.5322 18.3021 12.3507Z" fill="url(#paint6_linear_107_640)"/>
<path d="M4.08044 26.3181C6.1104 31.4638 9.81516 35 11.7273 35C14.7477 35 15.1504 33.5904 17.5667 33.5904C19.9831 33.5904 20.3858 35 23.4061 35C25.3183 35 29.0231 31.4638 31.053 26.3181H4.08044Z" fill="url(#paint7_linear_107_640)"/>
<path d="M22.9092 10.7061C22.7102 10.8543 22.506 10.9798 22.2963 11.0906C22.0827 11.1961 21.8686 11.2919 21.648 11.3726C21.209 11.5368 20.7559 11.6543 20.2995 11.7472C19.3857 11.9315 18.4535 12.0092 17.5211 12.01C16.5905 12.0065 15.6553 11.9306 14.7424 11.7467C14.2849 11.6559 13.8345 11.533 13.3947 11.3707C13.1722 11.2933 12.9607 11.1934 12.7458 11.0898C12.6427 11.0326 12.5346 10.9787 12.4358 10.9114C12.329 10.8521 12.2363 10.7763 12.1327 10.7061C12.271 10.9448 12.4529 11.1589 12.6582 11.3507L21.526 20.2182C21.734 20.4443 21.9778 20.6425 22.2339 20.8134C22.6558 21.0953 23.118 21.314 23.5944 21.482C24.5509 21.8166 25.5589 21.9643 26.5659 21.9661C27.5707 21.9645 28.5822 21.8147 29.5371 21.4801C30.0127 21.3095 30.4762 21.0967 30.8976 20.8134C31.316 20.5314 31.7051 20.1818 31.954 19.7511L22.9092 10.7061Z" fill="url(#paint8_linear_107_640)"/>
<path d="M22.9092 10.7061C22.66 11.137 22.2712 11.4863 21.8528 11.7686C21.4312 12.0516 20.9676 12.2644 20.492 12.4351C19.5371 12.7699 18.5259 12.9197 17.5211 12.9211C16.5141 12.9192 15.5058 12.7715 14.5493 12.4369C14.0729 12.2692 13.6107 12.0503 13.1888 11.7686C12.7693 11.4887 12.3818 11.1362 12.1327 10.7061C12.2363 10.7763 12.329 10.8521 12.4358 10.9114C12.5346 10.9787 12.6427 11.0326 12.7458 11.0898C12.9607 11.1934 13.1722 11.2933 13.3947 11.3707C13.8345 11.533 14.2849 11.6559 14.7424 11.7467C15.6553 11.9306 16.5905 12.0065 17.5211 12.01C18.4535 12.0092 19.3857 11.9315 20.2995 11.7472C20.7559 11.6543 21.209 11.5368 21.648 11.3726C21.8686 11.2919 22.0827 11.1961 22.2963 11.0906C22.506 10.9798 22.7102 10.8543 22.9092 10.7061Z" fill="url(#paint9_linear_107_640)"/>
<path d="M20.1895 18.0502C20.1895 13.0172 16.5849 8.93701 12.1383 8.93701C7.69178 8.93701 4.08716 13.0172 4.08716 18.0502C4.08716 23.0834 7.69178 27.1633 12.1383 27.1633C16.5849 27.1633 20.1895 23.0834 20.1895 18.0502Z" fill="url(#paint10_linear_107_640)"/>
</g>
</svg>
