<svg width="8" height="14" viewBox="0 0 8 14" fill="none" xmlns="http://www.w3.org/2000/svg">
<path d="M6.75004 0.583307C6.6294 0.582609 6.50981 0.605732 6.39812 0.651349C6.28644 0.696967 6.18486 0.764183 6.0992 0.849141L0.599201 6.34914C0.428471 6.52089 0.332642 6.75322 0.332642 6.99539C0.332642 7.23756 0.428471 7.46989 0.599201 7.64164L6.0992 13.1416C6.27456 13.2918 6.50013 13.3703 6.73083 13.3614C6.96154 13.3525 7.18038 13.2568 7.34363 13.0936C7.50689 12.9303 7.60253 12.7115 7.61144 12.4808C7.62035 12.2501 7.54188 12.0245 7.3917 11.8491L2.54253 6.99997L7.3917 2.15081C7.52042 2.02314 7.6084 1.86017 7.6445 1.68251C7.6806 1.50485 7.66321 1.32047 7.59453 1.15269C7.52585 0.984912 7.40896 0.841266 7.25864 0.739917C7.10832 0.638567 6.93133 0.584067 6.75004 0.583307V0.583307Z" fill="#06161C"/>
</svg>
