<svg width="35" height="34" viewBox="0 0 35 34" fill="none" xmlns="http://www.w3.org/2000/svg">
<defs>
<linearGradient id="paint0_linear_107_657" x1="15.3916" y1="22.4832" x2="22.9494" y2="28.6521" gradientUnits="userSpaceOnUse">
<stop stop-color="#BBEC6C"/>
<stop offset="1" stop-color="#81B823"/>
</linearGradient>
<linearGradient id="paint1_linear_107_657" x1="17.5" y1="22.4" x2="17.5" y2="19.3186" gradientUnits="userSpaceOnUse">
<stop stop-color="#47A920" stop-opacity="0"/>
<stop offset="0.2298" stop-color="#45932F" stop-opacity="0.23"/>
<stop offset="0.7392" stop-color="#40694D" stop-opacity="0.739"/>
<stop offset="1" stop-color="#3E5959"/>
</linearGradient>
<linearGradient id="paint2_linear_107_657" x1="12.695" y1="24.4732" x2="15.1168" y2="21.5705" gradientUnits="userSpaceOnUse">
<stop stop-color="#47A920" stop-opacity="0"/>
<stop offset="0.242" stop-color="#459A2A" stop-opacity="0.242"/>
<stop offset="0.7001" stop-color="#417545" stop-opacity="0.7"/>
<stop offset="1" stop-color="#3E5959"/>
</linearGradient>
<linearGradient id="paint3_linear_107_657" x1="11.6559" y1="23.1931" x2="9.72071" y2="19.5128" gradientUnits="userSpaceOnUse">
<stop stop-color="#47A920" stop-opacity="0"/>
<stop offset="0.242" stop-color="#459A2A" stop-opacity="0.242"/>
<stop offset="0.7001" stop-color="#417545" stop-opacity="0.7"/>
<stop offset="1" stop-color="#3E5959"/>
</linearGradient>
<linearGradient id="paint4_linear_107_657" x1="22.3049" y1="24.4732" x2="19.8832" y2="21.5705" gradientUnits="userSpaceOnUse">
<stop stop-color="#47A920" stop-opacity="0"/>
<stop offset="0.242" stop-color="#459A2A" stop-opacity="0.242"/>
<stop offset="0.7001" stop-color="#417545" stop-opacity="0.7"/>
<stop offset="1" stop-color="#3E5959"/>
</linearGradient>
<linearGradient id="paint5_linear_107_657" x1="23.2869" y1="23.2384" x2="24.5565" y2="19.1836" gradientUnits="userSpaceOnUse">
<stop stop-color="#47A920" stop-opacity="0"/>
<stop offset="0.242" stop-color="#459A2A" stop-opacity="0.242"/>
<stop offset="0.7001" stop-color="#417545" stop-opacity="0.7"/>
<stop offset="1" stop-color="#3E5959"/>
</linearGradient>
<linearGradient id="paint6_linear_107_657" x1="17.5" y1="29.2889" x2="17.5" y2="33.5555" gradientUnits="userSpaceOnUse">
<stop stop-color="#47A920" stop-opacity="0"/>
<stop offset="0.242" stop-color="#459A2A" stop-opacity="0.242"/>
<stop offset="0.7001" stop-color="#417545" stop-opacity="0.7"/>
<stop offset="1" stop-color="#3E5959"/>
</linearGradient>
<linearGradient id="paint7_linear_107_657" x1="8.69778" y1="7.81744" x2="22.6816" y2="22.2125" gradientUnits="userSpaceOnUse">
<stop stop-color="#8BC727"/>
<stop offset="1" stop-color="#017B4E"/>
</linearGradient>
<linearGradient id="paint8_linear_107_657" x1="17.5" y1="16.4889" x2="17.5" y2="22.8445" gradientUnits="userSpaceOnUse">
<stop stop-color="#026841" stop-opacity="0"/>
<stop offset="0.2377" stop-color="#0A6644" stop-opacity="0.238"/>
<stop offset="0.6075" stop-color="#20614D" stop-opacity="0.608"/>
<stop offset="1" stop-color="#3E5959"/>
</linearGradient>
<linearGradient id="paint9_linear_107_657" x1="22.9216" y1="10.3337" x2="31.2484" y2="10.3337" gradientUnits="userSpaceOnUse">
<stop stop-color="#026841" stop-opacity="0"/>
<stop offset="0.2377" stop-color="#0A6644" stop-opacity="0.238"/>
<stop offset="0.6075" stop-color="#20614D" stop-opacity="0.608"/>
<stop offset="1" stop-color="#3E5959"/>
</linearGradient>
<linearGradient id="paint10_linear_107_657" x1="10.4808" y1="10.4992" x2="1.38211" y2="14.8794" gradientUnits="userSpaceOnUse">
<stop stop-color="#026841" stop-opacity="0"/>
<stop offset="0.2377" stop-color="#0A6644" stop-opacity="0.238"/>
<stop offset="0.6075" stop-color="#20614D" stop-opacity="0.608"/>
<stop offset="1" stop-color="#3E5959"/>
</linearGradient>
</defs>
<path d="M26.9748 20.7907C26.301 20.1103 25.6272 19.4299 24.9533 18.7496C23.3449 20.1384 21.9816 21.7006 20.8744 23.4017C20.7408 23.607 20.4158 23.5309 20.3944 23.2889L19.7993 16.5684H15.2006L14.6056 23.2889C14.5842 23.5309 14.2591 23.607 14.1255 23.4017C13.0183 21.7006 11.655 20.1384 10.0466 18.7495C9.37279 19.4299 8.69894 20.1103 8.02509 20.7906C10.6915 23.7392 12.7578 27.7283 13.4138 31.2927C13.6263 32.4468 14.6704 33.2806 15.8772 33.28C16.898 33.2796 18.102 33.2795 19.123 33.2799C20.3296 33.2804 21.3736 32.4466 21.586 31.2927C22.2421 27.7284 24.3085 23.7392 26.9748 20.7907Z" fill="url(#paint0_linear_107_657)"/>
<path d="M20.36 22.9L19.7994 16.5684H15.2006L14.64 22.9H20.36Z" fill="url(#paint1_linear_107_657)"/>
<path d="M14.6056 23.2888C14.5842 23.5308 14.2591 23.607 14.1255 23.4016C13.0184 21.7005 11.655 20.1384 10.0466 18.7495C9.37279 19.4299 8.69894 20.1103 8.02509 20.7906C10.6915 23.7392 12.7578 27.7283 13.4139 31.2927C13.4752 31.6258 13.6061 31.932 13.79 32.1995L14.6056 23.2888Z" fill="url(#paint2_linear_107_657)"/>
<path d="M14.6056 23.2888C14.5842 23.5308 14.2591 23.607 14.1255 23.4016C13.0184 21.7005 11.655 20.1384 10.0466 18.7495C9.37279 19.4299 8.69894 20.1103 8.02509 20.7906C10.6915 23.7392 12.7578 27.7283 13.4139 31.2927C13.4752 31.6258 13.6061 31.932 13.79 32.1995L14.6056 23.2888Z" fill="url(#paint3_linear_107_657)"/>
<path d="M20.3944 23.2888C20.4158 23.5308 20.7408 23.607 20.8745 23.4016C21.9816 21.7005 23.345 20.1384 24.9534 18.7495C25.6272 19.4299 26.301 20.1103 26.9749 20.7906C24.3085 23.7392 22.2421 27.7283 21.5861 31.2927C21.5248 31.6258 21.3938 31.932 21.21 32.1995L20.3944 23.2888Z" fill="url(#paint4_linear_107_657)"/>
<path d="M20.3944 23.2888C20.4158 23.5308 20.7408 23.607 20.8745 23.4016C21.9816 21.7005 23.345 20.1384 24.9534 18.7495C25.6272 19.4299 26.301 20.1103 26.9749 20.7906C24.3085 23.7392 22.2421 27.7283 21.5861 31.2927C21.5248 31.6258 21.3938 31.932 21.21 32.1995L20.3944 23.2888Z" fill="url(#paint5_linear_107_657)"/>
<path d="M11.6868 26.2371C12.509 27.9169 13.1116 29.6499 13.414 31.2927C13.6264 32.4467 14.6705 33.2806 15.8774 33.2801C16.8981 33.2796 18.1021 33.2795 19.1231 33.2799C20.3298 33.2804 21.3737 32.4466 21.5861 31.2927C21.8885 29.6499 22.4911 27.9169 23.3134 26.2371H11.6868Z" fill="url(#paint6_linear_107_657)"/>
<path d="M29.6479 11.9393C29.6462 11.9393 29.6447 11.9393 29.643 11.9393C29.4169 11.9395 29.2474 11.7362 29.3037 11.5234C29.4253 11.0639 29.4841 10.58 29.4697 10.0804C29.391 7.3685 27.1385 5.1481 24.3481 5.03457C23.9329 5.01764 23.5277 5.0471 23.1373 5.11764C22.955 5.15057 22.7772 5.03604 22.7396 4.85957C22.2358 2.49637 20.082 0.719971 17.5 0.719971C14.918 0.719971 12.7642 2.49637 12.2604 4.8595C12.2228 5.03597 12.0451 5.1505 11.8627 5.11757C11.4723 5.0471 11.0671 5.01764 10.6519 5.0345C7.86149 5.1481 5.60907 7.36844 5.53035 10.0804C5.51587 10.58 5.57476 11.0639 5.69636 11.5234C5.75271 11.7362 5.5832 11.9395 5.357 11.9392C5.35535 11.9392 5.35378 11.9392 5.35213 11.9392C2.35331 11.9392 -0.0694408 14.335 0.00152001 17.2638C0.0690494 20.0508 2.43127 22.3113 5.30093 22.3374C6.95739 22.3524 8.44201 21.6362 9.43395 20.501C9.55323 20.3646 9.7635 20.3433 9.90762 20.4548C10.8219 21.1622 11.9798 21.5851 13.2394 21.5851C14.8153 21.5851 16.2312 20.9228 17.2105 19.8698C17.3502 19.7196 17.5916 19.7212 17.7287 19.8736C18.7098 20.9644 20.1523 21.6535 21.7605 21.6535C23.036 21.6535 24.2068 21.2197 25.1262 20.4962C25.2693 20.3836 25.4794 20.4034 25.5998 20.5386C26.5958 21.6567 28.0739 22.3584 29.7205 22.3371C32.5819 22.3002 34.9312 20.0427 34.9984 17.2636C35.0694 14.335 32.6466 11.9393 29.6479 11.9393Z" fill="url(#paint7_linear_107_657)"/>
<path d="M0.434894 15.0862C0.140002 15.752 -0.0172921 16.4888 0.00151184 17.2638C0.0690413 20.0508 2.43127 22.3114 5.30092 22.3374C6.95738 22.3525 8.442 21.6363 9.43394 20.5011C9.55322 20.3646 9.76349 20.3434 9.90761 20.4549C10.8219 21.1623 11.9797 21.5852 13.2394 21.5852C14.8153 21.5852 16.2311 20.9228 17.2105 19.8698C17.3502 19.7196 17.5916 19.7213 17.7287 19.8737C18.7098 20.9645 20.1523 21.6536 21.7605 21.6536C23.036 21.6536 24.2068 21.2198 25.1262 20.4962C25.2692 20.3837 25.4795 20.4034 25.5998 20.5386C26.5958 21.6568 28.0738 22.3584 29.7205 22.3372C32.5818 22.3003 34.9312 20.0428 34.9984 17.2637C35.0172 16.4888 34.8599 15.7519 34.565 15.0862H0.434894Z" fill="url(#paint8_linear_107_657)"/>
<path d="M29.4684 11.8943C29.3392 11.8229 29.2633 11.6757 29.3037 11.5233C29.4253 11.0638 29.4842 10.5799 29.4697 10.0803C29.391 7.36839 27.1385 5.14799 24.3481 5.03445C23.9329 5.01752 23.5277 5.04699 23.1373 5.11752C23.0897 5.12612 23.0424 5.12419 22.9978 5.11419C20.5607 5.65725 18.7422 7.77545 18.7422 10.3077C18.7422 13.2514 21.1987 15.6377 24.2289 15.6377C24.3387 15.6377 24.4475 15.6335 24.5557 15.6273C25.2025 13.566 27.1578 11.9839 29.4684 11.8943Z" fill="url(#paint9_linear_107_657)"/>
<path d="M12.0022 5.11418C11.9576 5.12418 11.9104 5.12611 11.8627 5.11751C11.4724 5.04705 11.0671 5.01751 10.6519 5.03445C7.86149 5.14805 5.60907 7.36838 5.53035 10.0803C5.51587 10.5799 5.57475 11.0638 5.69636 11.5233C5.73671 11.6757 5.66088 11.8229 5.53159 11.8942C5.53159 11.8942 9.00729 11.8332 10.4443 15.6272C10.5525 15.6334 10.6612 15.6376 10.771 15.6376C13.8013 15.6376 16.2577 13.2513 16.2577 10.3076C16.2578 7.77545 14.4394 5.65718 12.0022 5.11418Z" fill="url(#paint10_linear_107_657)"/>
</svg>
