<svg width="18" height="12" viewBox="0 0 18 12" fill="none" xmlns="http://www.w3.org/2000/svg">
<path fill-rule="evenodd" clip-rule="evenodd" d="M17.8808 5.9691L16.8217 4.65588L16.8367 4.64857L15.1324 1.36692C15.0358 1.1812 14.8395 1.06404 14.6247 1.06404H12.19V0.546606C12.19 0.244675 11.9358 0 11.6222 0H2.15958C1.84597 0 1.59184 0.244709 1.59184 0.546606C1.59184 0.848503 1.84601 1.09321 2.15958 1.09321H11.0544V4.91955C11.0544 5.22149 11.3086 5.46616 11.6222 5.46616H16.0376L16.8645 6.49161V9.31073H15.7969C15.5613 8.34587 14.6621 7.62562 13.5918 7.62562C12.5327 7.62562 11.641 8.33101 11.3943 9.28079H8.01387C7.76714 8.33101 6.87546 7.62562 5.81633 7.62562C4.75719 7.62562 3.86552 8.33101 3.61878 9.28079H2.163C1.84751 9.28079 1.59184 9.5322 1.59184 9.84237C1.59184 10.1526 1.84754 10.4039 2.163 10.4039H3.63506C3.90279 11.3237 4.77928 12 5.81633 12C6.85337 12 7.72986 11.3237 7.99759 10.4039H11.4106C11.6783 11.3237 12.5548 12 13.5918 12C14.6291 12 15.5054 11.3237 15.7731 10.4039H17.4322C17.7458 10.4039 18 10.1592 18 9.85734V6.30436C18 6.18301 17.958 6.06494 17.8808 5.9691ZM14.2744 2.16405L15.4215 4.37295H12.19V2.16405H14.2744ZM4.69693 9.98031C4.70826 9.93618 4.71429 9.88996 4.71429 9.84237C4.71429 9.78756 4.7063 9.73458 4.69142 9.68451C4.75738 9.14166 5.23663 8.71921 5.81633 8.71921C6.4408 8.71921 6.94898 9.2097 6.94898 9.81281C6.94898 10.4159 6.44097 10.9064 5.81633 10.9064C5.25066 10.9064 4.78064 10.5042 4.69693 9.98031ZM12.4592 9.81281C12.4592 10.4159 12.9672 10.9064 13.5918 10.9064C14.2165 10.9064 14.7245 10.4159 14.7245 9.81281C14.7245 9.2097 14.2165 8.71921 13.5918 8.71921C12.9672 8.71921 12.4592 9.2097 12.4592 9.81281ZM1.48422 6.50246H4.08724C4.39977 6.50246 4.6531 6.75387 4.65306 7.06404C4.65306 7.3742 4.39977 7.62562 4.08721 7.62562H1.48422C1.17169 7.62562 0.918367 7.37424 0.918367 7.06404C0.918367 6.75387 1.17166 6.50246 1.48422 6.50246ZM5.43039 4.37438H0.569606C0.255006 4.37438 0 4.62579 0 4.93598C0 5.24617 0.255006 5.49754 0.569606 5.49754H5.43039C5.74503 5.49754 6 5.24613 6 4.93598C6 4.62582 5.74503 4.37438 5.43039 4.37438ZM1.48797 2.18719H6.34876C6.6634 2.18719 6.9184 2.4386 6.91837 2.74877C6.91837 3.05893 6.6634 3.31034 6.34876 3.31034H1.48797C1.17337 3.31034 0.918367 3.05897 0.918367 2.74877C0.918367 2.4386 1.17334 2.18719 1.48797 2.18719Z" fill="white"/>
</svg>
