<svg width="18" height="21" viewBox="0 0 18 21" fill="none" xmlns="http://www.w3.org/2000/svg">
<path d="M5.75 2.25V0.75C5.75 0.34 5.41 0 5 0C4.59 0 4.25 0.34 4.25 0.75V2.31C4.5 2.28 4.73 2.25 5 2.25H5.75Z" fill="#DBDBDB"/>
<path d="M13.75 2.31V0.75C13.75 0.34 13.41 0 13 0C12.59 0 12.25 0.34 12.25 0.75V2.25H13C13.27 2.25 13.5 2.28 13.75 2.31Z" fill="#DBDBDB"/>
<path d="M13.75 2.31V3.75C13.75 4.16 13.41 4.5 13 4.5C12.59 4.5 12.25 4.16 12.25 3.75V2.25H5.75V3.75C5.75 4.16 5.41 4.5 5 4.5C4.59 4.5 4.25 4.16 4.25 3.75V2.31C1.3 2.58 0 4.48 0 7.25V15.75C0 18.75 1.5 20.75 5 20.75H13C16.5 20.75 18 18.75 18 15.75V7.25C18 4.48 16.7 2.58 13.75 2.31ZM9 15.5H5C4.59 15.5 4.25 15.16 4.25 14.75C4.25 14.34 4.59 14 5 14H9C9.41 14 9.75 14.34 9.75 14.75C9.75 15.16 9.41 15.5 9 15.5ZM13 10.5H5C4.59 10.5 4.25 10.16 4.25 9.75C4.25 9.34 4.59 9 5 9H13C13.41 9 13.75 9.34 13.75 9.75C13.75 10.16 13.41 10.5 13 10.5Z" fill="#DBDBDB"/>
</svg>
