<svg width="20" height="20" viewBox="0 0 20 20" fill="none" xmlns="http://www.w3.org/2000/svg">
<path d="M5.24 0H3.34C1.15 0 0 1.15 0 3.33V5.23C0 7.41 1.15 8.56 3.33 8.56H5.23C7.41 8.56 8.56 7.41 8.56 5.23V3.33C8.57 1.15 7.42 0 5.24 0Z" fill="#DBDBDB"/>
<path d="M16.6699 0H14.7699C12.5899 0 11.4399 1.15 11.4399 3.33V5.23C11.4399 7.41 12.5899 8.56 14.7699 8.56H16.6699C18.8499 8.56 19.9999 7.41 19.9999 5.23V3.33C19.9999 1.15 18.8499 0 16.6699 0Z" fill="#DBDBDB"/>
<path d="M16.6699 11.4299H14.7699C12.5899 11.4299 11.4399 12.5799 11.4399 14.7599V16.6599C11.4399 18.8399 12.5899 19.9899 14.7699 19.9899H16.6699C18.8499 19.9899 19.9999 18.8399 19.9999 16.6599V14.7599C19.9999 12.5799 18.8499 11.4299 16.6699 11.4299Z" fill="#DBDBDB"/>
<path d="M5.24 11.4299H3.34C1.15 11.4299 0 12.5799 0 14.7599V16.6599C0 18.8499 1.15 19.9999 3.33 19.9999H5.23C7.41 19.9999 8.56 18.8499 8.56 16.6699V14.7699C8.57 12.5799 7.42 11.4299 5.24 11.4299Z" fill="#DBDBDB"/>
</svg>
