<svg width="36" height="25" viewBox="0 0 36 25" fill="none" xmlns="http://www.w3.org/2000/svg">
<defs>
<linearGradient id="paint0_linear_107_676" x1="7.72871e-06" y1="12.5001" x2="36" y2="12.5001" gradientUnits="userSpaceOnUse">
<stop stop-color="#FEE97D"/>
<stop offset="1" stop-color="#FE860A"/>
</linearGradient>
<linearGradient id="paint1_linear_107_676" x1="17.6734" y1="2.65714" x2="19.2782" y2="15.5877" gradientUnits="userSpaceOnUse">
<stop stop-color="#FE7701" stop-opacity="0"/>
<stop offset="0.398" stop-color="#E05915" stop-opacity="0.398"/>
<stop offset="1" stop-color="#AC2538"/>
</linearGradient>
<linearGradient id="paint2_linear_107_676" x1="10.67" y1="21.7823" x2="4.8312" y2="15.7767" gradientUnits="userSpaceOnUse">
<stop stop-color="#FEE97D"/>
<stop offset="1" stop-color="#FE860A"/>
</linearGradient>
<linearGradient id="paint3_linear_107_676" x1="29.4715" y1="20.408" x2="23.6327" y2="14.4024" gradientUnits="userSpaceOnUse">
<stop stop-color="#FEE97D"/>
<stop offset="1" stop-color="#FE860A"/>
</linearGradient>
<linearGradient id="paint4_linear_107_676" x1="17.7231" y1="13.3839" x2="13.5112" y2="9.05154" gradientUnits="userSpaceOnUse">
<stop stop-color="#FEE97D"/>
<stop offset="1" stop-color="#FE860A"/>
</linearGradient>
<linearGradient id="paint5_linear_107_676" x1="31.577" y1="12.0097" x2="27.3649" y2="7.67727" gradientUnits="userSpaceOnUse">
<stop stop-color="#FEE97D"/>
<stop offset="1" stop-color="#FE860A"/>
</linearGradient>
<linearGradient id="paint6_linear_107_676" x1="25.7246" y1="7.62152" x2="20.8388" y2="2.59614" gradientUnits="userSpaceOnUse">
<stop stop-color="#FEE97D"/>
<stop offset="1" stop-color="#FE860A"/>
</linearGradient>
<linearGradient id="paint7_linear_107_676" x1="14.0081" y1="4.28286" x2="11.42" y2="1.62084" gradientUnits="userSpaceOnUse">
<stop stop-color="#FEE97D"/>
<stop offset="1" stop-color="#FE860A"/>
</linearGradient>
<linearGradient id="paint8_linear_107_676" x1="17.983" y1="18.8492" x2="17.983" y2="26.6254" gradientUnits="userSpaceOnUse">
<stop stop-color="#FE7701" stop-opacity="0"/>
<stop offset="0.398" stop-color="#E05915" stop-opacity="0.398"/>
<stop offset="1" stop-color="#AC2538"/>
</linearGradient>
<linearGradient id="paint9_linear_107_676" x1="23.5362" y1="4.69298" x2="23.5362" y2="8.57805" gradientUnits="userSpaceOnUse">
<stop stop-color="#FE7701" stop-opacity="0"/>
<stop offset="0.398" stop-color="#E05915" stop-opacity="0.398"/>
<stop offset="1" stop-color="#AC2538"/>
</linearGradient>
</defs>
<path d="M33.5488 16.9937C33.5488 18.3346 34.294 19.5063 35.4038 20.138C35.7486 20.3343 35.9668 20.6873 35.966 21.0758L35.9619 22.8217C35.9598 23.748 35.1858 24.4978 34.233 24.495L24.9207 24.4738C24.5454 24.473 24.1936 24.2889 23.9927 23.9806C23.3286 22.9613 22.1583 22.285 20.8259 22.285C19.5002 22.285 18.3347 22.9549 17.669 23.9655C17.4664 24.273 17.1138 24.4558 16.7382 24.455L1.72109 24.4201C0.768361 24.4174 -0.0028158 23.6649 7.72871e-06 22.7386L0.0119371 17.7628C0.0131371 17.275 0.352808 16.8545 0.836267 16.7241C2.41808 16.2975 3.57933 14.8876 3.57933 13.2141C3.57933 11.5467 2.42669 10.1409 0.854196 9.70865C0.37102 9.57586 0.0328313 9.15394 0.0340313 8.66579L0.0367136 7.60721C0.0388313 6.85128 0.560478 6.18951 1.31111 5.99234L21.339 0.71681C22.8714 0.313418 24.5042 0.490751 25.9072 1.21299L35.0817 5.93675C35.6479 6.22814 36.0013 6.79988 35.9999 7.42315L35.986 12.9031C35.985 13.2927 35.7645 13.6459 35.4178 13.8413C34.3002 14.4712 33.5488 15.6471 33.5488 16.9937Z" fill="url(#paint0_linear_107_676)"/>
<path d="M35.6399 6.39445C35.492 6.20813 35.3036 6.05056 35.082 5.9365L25.9076 1.21308C24.5044 0.490637 22.8714 0.313372 21.3389 0.71697L1.31096 5.99223C1.07364 6.05475 0.859331 6.16386 0.677002 6.30743L35.6399 6.39445Z" fill="url(#paint1_linear_107_676)"/>
<path d="M8.05475 22.4225C9.86278 22.4225 11.3285 20.9975 11.3285 19.2397C11.3285 17.4819 9.86278 16.0569 8.05475 16.0569C6.24671 16.0569 4.78101 17.4819 4.78101 19.2397C4.78101 20.9975 6.24671 22.4225 8.05475 22.4225Z" fill="url(#paint2_linear_107_676)"/>
<path d="M26.8563 21.0482C28.6643 21.0482 30.13 19.6232 30.13 17.8654C30.13 16.1076 28.6643 14.6826 26.8563 14.6826C25.0482 14.6826 23.5825 16.1076 23.5825 17.8654C23.5825 19.6232 25.0482 21.0482 26.8563 21.0482Z" fill="url(#paint3_linear_107_676)"/>
<path d="M15.8365 13.8458C17.1408 13.8458 18.1982 12.8178 18.1982 11.5497C18.1982 10.2816 17.1408 9.25366 15.8365 9.25366C14.5322 9.25366 13.4749 10.2816 13.4749 11.5497C13.4749 12.8178 14.5322 13.8458 15.8365 13.8458Z" fill="url(#paint4_linear_107_676)"/>
<path d="M29.6903 12.4715C30.9947 12.4715 32.052 11.4435 32.052 10.1755C32.052 8.90738 30.9947 7.87939 29.6903 7.87939C28.386 7.87939 27.3287 8.90738 27.3287 10.1755C27.3287 11.4435 28.386 12.4715 29.6903 12.4715Z" fill="url(#paint5_linear_107_676)"/>
<path d="M23.5362 8.15729C25.0491 8.15729 26.2756 6.96486 26.2756 5.49393C26.2756 4.02299 25.0491 2.83057 23.5362 2.83057C22.0232 2.83057 20.7967 4.02299 20.7967 5.49393C20.7967 6.96486 22.0232 8.15729 23.5362 8.15729Z" fill="url(#paint6_linear_107_676)"/>
<path d="M15.0552 2.37207L10.3199 3.61931C10.8217 4.1686 11.5533 4.5151 12.3684 4.5151C13.6982 4.51517 14.8063 3.59391 15.0552 2.37207Z" fill="url(#paint7_linear_107_676)"/>
<path d="M2.90323 15.301C2.41109 15.984 1.68424 16.4956 0.836267 16.7242C0.352808 16.8546 0.0131371 17.2752 0.0119371 17.763L7.72871e-06 22.7387C-0.0028158 23.6651 0.768361 24.4176 1.72109 24.4203L16.7382 24.4552C17.1138 24.4561 17.4664 24.2732 17.669 23.9657C18.3347 22.955 19.5002 22.2852 20.8259 22.2852C22.1583 22.2852 23.3286 22.9615 23.9927 23.9808C24.1935 24.2891 24.5453 24.4732 24.9206 24.474L34.2329 24.4952C35.1857 24.4979 35.9597 23.7482 35.9618 22.8219L35.9659 21.076C35.9668 20.6876 35.7485 20.3346 35.4037 20.1382C34.294 19.5064 33.5487 18.3347 33.5487 16.9939C33.5487 16.4115 33.6895 15.8612 33.9394 15.373L2.90323 15.301Z" fill="url(#paint8_linear_107_676)"/>
<path d="M26.2756 5.49393C26.2756 4.02304 25.0491 2.83057 23.5362 2.83057C22.0232 2.83057 20.7967 4.02297 20.7967 5.49393C20.7967 5.79644 20.8493 6.08687 20.9449 6.35788L26.1229 6.37078C26.2214 6.09607 26.2756 5.80124 26.2756 5.49393Z" fill="url(#paint9_linear_107_676)"/>
</svg>
