<svg width="35" height="34" viewBox="0 0 35 34" fill="none" xmlns="http://www.w3.org/2000/svg">
<defs>
<linearGradient id="paint0_linear_107_692" x1="11.6632" y1="9.80874" x2="20.1555" y2="25.2201" gradientUnits="userSpaceOnUse">
<stop stop-color="#FFDFCF"/>
<stop offset="1" stop-color="#FFA78F"/>
</linearGradient>
<linearGradient id="paint1_linear_107_692" x1="-1.54172" y1="5.18874" x2="31.772" y2="33.828" gradientUnits="userSpaceOnUse">
<stop stop-color="#F89580" stop-opacity="0"/>
<stop offset="0.2608" stop-color="#F2917C" stop-opacity="0.262"/>
<stop offset="0.5874" stop-color="#E38670" stop-opacity="0.589"/>
<stop offset="0.9476" stop-color="#CA735D" stop-opacity="0.95"/>
<stop offset="0.9972" stop-color="#C5715A"/>
</linearGradient>
<linearGradient id="paint2_linear_107_692" x1="14.8665" y1="27.2149" x2="14.8665" y2="32.9212" gradientUnits="userSpaceOnUse">
<stop stop-color="#F89580" stop-opacity="0"/>
<stop offset="0.3584" stop-color="#E98A75" stop-opacity="0.359"/>
<stop offset="0.9972" stop-color="#C5715A"/>
</linearGradient>
<linearGradient id="paint3_linear_107_692" x1="4.39751" y1="3.32824" x2="26.1298" y2="25.6996" gradientUnits="userSpaceOnUse">
<stop stop-color="#FFDFCF"/>
<stop offset="1" stop-color="#FFA78F"/>
</linearGradient>
<linearGradient id="paint4_linear_107_692" x1="19.7328" y1="13.0268" x2="29.99" y2="23.5857" gradientUnits="userSpaceOnUse">
<stop stop-color="#FD4755"/>
<stop offset="1" stop-color="#D2024E"/>
</linearGradient>
<linearGradient id="paint5_linear_107_692" x1="3.96222" y1="12.8918" x2="18.3175" y2="27.6693" gradientUnits="userSpaceOnUse">
<stop stop-color="#FD4755"/>
<stop offset="1" stop-color="#D2024E"/>
</linearGradient>
<linearGradient id="paint6_linear_107_692" x1="12.5962" y1="0.710721" x2="25.202" y2="13.6873" gradientUnits="userSpaceOnUse">
<stop stop-color="#FD4755"/>
<stop offset="1" stop-color="#D2024E"/>
</linearGradient>
<linearGradient id="paint7_linear_107_692" x1="28.3088" y1="6.89913" x2="36.1097" y2="14.9296" gradientUnits="userSpaceOnUse">
<stop stop-color="#FD4755"/>
<stop offset="1" stop-color="#D2024E"/>
</linearGradient>
<linearGradient id="paint8_linear_107_692" x1="10.0598" y1="18.9778" x2="10.0598" y2="27.451" gradientUnits="userSpaceOnUse">
<stop stop-color="#C00148" stop-opacity="0"/>
<stop offset="0.3112" stop-color="#AA0E3F" stop-opacity="0.311"/>
<stop offset="0.9578" stop-color="#713028" stop-opacity="0.958"/>
<stop offset="1" stop-color="#6D3326"/>
</linearGradient>
<linearGradient id="paint9_linear_107_692" x1="6.64719" y1="18.3229" x2="11.6696" y2="23.493" gradientUnits="userSpaceOnUse">
<stop stop-color="#EAF6FF"/>
<stop offset="1" stop-color="#B3DAFE"/>
</linearGradient>
<linearGradient id="paint10_linear_107_692" x1="8.83041" y1="20.9446" x2="8.83041" y2="23.6797" gradientUnits="userSpaceOnUse">
<stop stop-color="#D8ECFE" stop-opacity="0"/>
<stop offset="0.7867" stop-color="#9BD1FE" stop-opacity="0.787"/>
<stop offset="1" stop-color="#8AC9FE"/>
</linearGradient>
<linearGradient id="paint11_linear_107_692" x1="25.3561" y1="17.9778" x2="25.3561" y2="22.8788" gradientUnits="userSpaceOnUse">
<stop stop-color="#C00148" stop-opacity="0"/>
<stop offset="0.3112" stop-color="#AA0E3F" stop-opacity="0.311"/>
<stop offset="0.9578" stop-color="#713028" stop-opacity="0.958"/>
<stop offset="1" stop-color="#6D3326"/>
</linearGradient>
</defs>
<path d="M35 12.2095V16.1201C35 17.6608 34.685 19.1701 34.09 20.5661C33.4943 21.9621 32.6186 23.2448 31.4973 24.3341C28.9429 26.8161 25.4779 28.2101 21.8654 28.2101H21.3184C20.0104 28.2101 18.7291 28.4628 17.5439 28.9395C16.358 29.4168 15.2682 30.1181 14.3431 31.0168C12.7029 32.6101 10.5522 33.4075 8.40206 33.4075C6.25196 33.4075 4.10118 32.6101 2.46098 31.0168C0.885294 29.4861 0 27.4101 0 25.2455V20.8888C0 19.8061 0.22098 19.5761 0.639608 19.4255C1.05824 19.2741 1.67314 19.2028 2.46098 18.4375C3.35176 17.5715 4.04765 16.5515 4.52118 15.4421C4.9549 14.4241 5.20196 13.3288 5.23902 12.2095H35Z" fill="url(#paint0_linear_107_692)"/>
<path d="M35 12.2095V16.1201C35 17.6608 34.685 19.1701 34.09 20.5661C33.4943 21.9621 32.6186 23.2448 31.4973 24.3341C28.9429 26.8161 25.4779 28.2101 21.8654 28.2101H21.3184C20.0104 28.2101 18.7291 28.4628 17.5439 28.9395C16.358 29.4168 15.2682 30.1181 14.3431 31.0168C12.7029 32.6101 10.5522 33.4075 8.40206 33.4075C6.25196 33.4075 4.10118 32.6101 2.46098 31.0168C0.885294 29.4861 0 27.4101 0 25.2455V20.8888C0 19.8061 0.22098 19.5761 0.639608 19.4255C1.05824 19.2741 1.67314 19.2028 2.46098 18.4375C3.35176 17.5715 4.04765 16.5515 4.52118 15.4421C4.9549 14.4241 5.20196 13.3288 5.23902 12.2095H35Z" fill="url(#paint1_linear_107_692)"/>
<path d="M0.0194092 25.7927C0.155292 27.7575 1.01862 29.6156 2.46097 31.0167C4.10116 32.6101 6.25195 33.4074 8.40205 33.4074C10.5521 33.4074 12.7029 32.6101 14.3431 31.0167C15.2682 30.1181 16.358 29.4167 17.5439 28.9394C18.7291 28.4627 20.0104 28.2101 21.3184 28.2101H21.8654C24.6941 28.2101 27.4322 27.3552 29.7136 25.7927H0.0194092Z" fill="url(#paint2_linear_107_692)"/>
<path d="M5.24465 7.99784C5.24465 10.4465 4.2433 12.7948 2.46091 14.5263C0.885226 16.057 0 18.133 0 20.2978V21.3342C0 23.499 0.885226 25.575 2.46091 27.1057C5.74213 30.2932 11.0621 30.2932 14.3433 27.1057C16.1932 25.3087 18.7021 24.2992 21.3182 24.2992H21.8651C25.4779 24.2992 28.9429 22.905 31.4975 20.4233C33.7401 18.2448 35 15.2901 35 12.2092C35 5.79364 29.6462 0.592773 23.0419 0.592773H12.8675C8.65749 0.592773 5.24465 3.90811 5.24465 7.99784Z" fill="url(#paint3_linear_107_692)"/>
<path d="M30.36 19.1708C31.4285 18.1112 31.7232 16.5218 31.0946 15.17C30.9743 14.9114 30.8467 14.6568 30.7118 14.4066C29.6645 12.4646 28.2255 10.8551 26.5281 9.71509C26.5139 9.72682 26.5 9.73889 26.4856 9.75055C24.5426 11.3353 22.1221 12.3831 19.4939 12.8033C19.909 14.3128 20.1196 15.8845 20.1196 17.4893C20.1196 19.3226 19.8446 21.1129 19.3114 22.8C19.9676 22.6892 20.6384 22.6326 21.3182 22.6326H21.8651C25.0455 22.6326 28.0355 21.4295 30.2844 19.2449C30.3098 19.2204 30.335 19.1956 30.36 19.1708Z" fill="url(#paint4_linear_107_692)"/>
<path d="M8.33571 27.8295C10.1465 27.8465 11.8516 27.1694 13.1302 25.9274C14.0745 25.01 15.1534 24.2711 16.3234 23.7272C17.0049 23.4104 17.5098 22.8224 17.723 22.1184C18.1656 20.6566 18.4038 19.0954 18.4038 17.4894C18.4038 15.9422 18.1897 14.4306 17.7666 12.9864C17.4659 13.0025 17.1635 13.0114 16.8594 13.0114C13.2302 13.0114 9.81147 11.8534 7.23335 9.75063C7.107 9.64757 6.98423 9.54237 6.86338 9.43604C6.54515 11.7958 5.44615 13.9774 3.68846 15.691C2.43759 16.9105 1.7157 18.5492 1.7157 20.2708V21.3344C1.7157 23.0908 2.42853 24.7409 3.72134 25.9727C4.95176 27.1452 6.61227 27.8134 8.33571 27.8295Z" fill="url(#paint5_linear_107_692)"/>
<path d="M23.0418 2.25952H12.8675C10.1898 2.25952 7.9237 3.99946 7.20181 6.37639C7.0522 6.86906 7.1876 7.40426 7.55771 7.77119C9.75503 9.94972 13.1083 11.3446 16.8595 11.3446C21.9575 11.3446 26.3212 8.76859 28.0459 5.14986C28.408 4.39006 28.0544 3.49412 27.2699 3.14732C25.9803 2.57725 24.5486 2.25952 23.0418 2.25952Z" fill="url(#paint6_linear_107_692)"/>
<path d="M29.9971 4.9126C29.534 6.2168 28.7869 7.44053 27.781 8.53293C30.0165 10.1129 31.7685 12.3586 32.8833 14.9801C33.1472 14.0909 33.2843 13.1605 33.2843 12.2094C33.2844 9.32906 32.0175 6.7312 29.9971 4.9126Z" fill="url(#paint7_linear_107_692)"/>
<path d="M18.4038 17.4891C18.4038 19.0951 18.1657 20.6565 17.7231 22.1185C17.5096 22.8225 17.0045 23.4105 16.3231 23.7271C15.1536 24.2711 14.0748 25.0098 13.1305 25.9271C11.8513 27.1691 10.1466 27.8465 8.3355 27.8291C6.61227 27.8131 4.95148 27.1451 3.72099 25.9725C2.42874 24.7405 1.7157 23.0905 1.7157 21.3345V20.2705C1.7157 19.1171 2.03962 18.0005 2.63119 17.0225H18.3963C18.4018 17.1778 18.4038 17.3331 18.4038 17.4891Z" fill="url(#paint8_linear_107_692)"/>
<path d="M8.83037 23.9545C10.8264 23.9545 12.4444 22.3826 12.4444 20.4437C12.4444 18.5047 10.8264 16.9329 8.83037 16.9329C6.83438 16.9329 5.21631 18.5047 5.21631 20.4437C5.21631 22.3826 6.83438 23.9545 8.83037 23.9545Z" fill="url(#paint9_linear_107_692)"/>
<path d="M5.21704 20.5005C5.23166 21.3799 5.58406 22.255 6.27486 22.9261C7.68626 24.2972 9.97457 24.2972 11.3859 22.9261C12.0767 22.255 12.4292 21.38 12.4437 20.5005H5.21704Z" fill="url(#paint10_linear_107_692)"/>
<path d="M31.4011 17.0225C31.3153 17.8145 30.9592 18.5765 30.3601 19.1705C30.3347 19.1951 30.31 19.2198 30.2846 19.2445C28.0356 21.4291 25.0455 22.6325 21.8653 22.6325H21.3184C20.6383 22.6325 19.9678 22.6891 19.311 22.7998C19.8443 21.1125 20.1195 19.3225 20.1195 17.4891C20.1195 17.3331 20.1174 17.1778 20.1126 17.0225H31.4011Z" fill="url(#paint11_linear_107_692)"/>
</svg>
